G04 EAGLE Gerber RS-274X export*
G75*
%MOMM*%
%FSLAX34Y34*%
%LPD*%
%INSilkscreen Top*%
%IPPOS*%
%AMOC8*
5,1,8,0,0,1.08239X$1,22.5*%
G01*
%ADD10C,0.101600*%
%ADD11C,0.254000*%
%ADD12C,0.152400*%
%ADD13C,0.127000*%


D10*
X375666Y711454D02*
X366522Y702310D01*
X366522Y711454D01*
X375412Y702056D01*
X375666Y711200D01*
X25146Y307848D02*
X35052Y298196D01*
X24892Y298450D01*
X34544Y307594D01*
X25654Y307594D01*
X352044Y554990D02*
X363220Y543560D01*
X352044Y543560D01*
X362966Y554736D01*
X352298Y554990D01*
X602488Y205740D02*
X594360Y196596D01*
X594106Y206248D01*
X603758Y196342D01*
X603250Y206502D01*
D11*
X417200Y91075D02*
X417200Y33575D01*
X417200Y91075D02*
X243200Y91075D01*
X243200Y33575D01*
X417200Y33575D01*
X267200Y34150D02*
X267200Y39150D01*
X394200Y39150D02*
X394200Y34150D01*
D10*
X237142Y36258D02*
X227998Y36258D01*
X233078Y39306D01*
X227998Y42354D01*
X237142Y42354D01*
X237142Y47149D02*
X237142Y51213D01*
X237142Y47149D02*
X227998Y47149D01*
X227998Y51213D01*
X232062Y50197D02*
X232062Y47149D01*
X237142Y54241D02*
X227998Y57289D01*
X237142Y60337D01*
X234856Y59575D02*
X234856Y55003D01*
X237142Y64264D02*
X227998Y64264D01*
X227998Y66804D01*
X228000Y66904D01*
X228006Y67003D01*
X228016Y67103D01*
X228029Y67201D01*
X228047Y67300D01*
X228068Y67397D01*
X228093Y67493D01*
X228122Y67589D01*
X228155Y67683D01*
X228191Y67776D01*
X228231Y67867D01*
X228275Y67957D01*
X228322Y68045D01*
X228372Y68131D01*
X228426Y68215D01*
X228483Y68297D01*
X228543Y68376D01*
X228607Y68454D01*
X228673Y68528D01*
X228742Y68600D01*
X228814Y68669D01*
X228888Y68735D01*
X228966Y68799D01*
X229045Y68859D01*
X229127Y68916D01*
X229211Y68970D01*
X229297Y69020D01*
X229385Y69067D01*
X229475Y69111D01*
X229566Y69151D01*
X229659Y69187D01*
X229753Y69220D01*
X229849Y69249D01*
X229945Y69274D01*
X230042Y69295D01*
X230141Y69313D01*
X230239Y69326D01*
X230339Y69336D01*
X230438Y69342D01*
X230538Y69344D01*
X230638Y69342D01*
X230737Y69336D01*
X230837Y69326D01*
X230935Y69313D01*
X231034Y69295D01*
X231131Y69274D01*
X231227Y69249D01*
X231323Y69220D01*
X231417Y69187D01*
X231510Y69151D01*
X231601Y69111D01*
X231691Y69067D01*
X231779Y69020D01*
X231865Y68970D01*
X231949Y68916D01*
X232031Y68859D01*
X232110Y68799D01*
X232188Y68735D01*
X232262Y68669D01*
X232334Y68600D01*
X232403Y68528D01*
X232469Y68454D01*
X232533Y68376D01*
X232593Y68297D01*
X232650Y68215D01*
X232704Y68131D01*
X232754Y68045D01*
X232801Y67957D01*
X232845Y67867D01*
X232885Y67776D01*
X232921Y67683D01*
X232954Y67589D01*
X232983Y67493D01*
X233008Y67397D01*
X233029Y67300D01*
X233047Y67201D01*
X233060Y67103D01*
X233070Y67003D01*
X233076Y66904D01*
X233078Y66804D01*
X233078Y64264D01*
X233078Y67312D02*
X237142Y69344D01*
X237142Y73748D02*
X227998Y73748D01*
X233078Y76796D01*
X227998Y79844D01*
X237142Y79844D01*
D12*
X374650Y558800D02*
X387350Y558800D01*
X393700Y552450D01*
X393700Y539750D01*
X387350Y533400D01*
X393700Y552450D02*
X400050Y558800D01*
X412750Y558800D01*
X419100Y552450D01*
X419100Y539750D01*
X412750Y533400D01*
X400050Y533400D01*
X393700Y539750D01*
X368300Y539750D02*
X368300Y552450D01*
X374650Y558800D01*
X368300Y539750D02*
X374650Y533400D01*
X387350Y533400D01*
X419100Y552450D02*
X425450Y558800D01*
X438150Y558800D01*
X444500Y552450D01*
X444500Y539750D01*
X438150Y533400D01*
X425450Y533400D01*
X419100Y539750D01*
D13*
X374523Y567563D02*
X374521Y567463D01*
X374515Y567364D01*
X374505Y567264D01*
X374492Y567166D01*
X374474Y567067D01*
X374453Y566970D01*
X374428Y566874D01*
X374399Y566778D01*
X374366Y566684D01*
X374330Y566591D01*
X374290Y566500D01*
X374246Y566410D01*
X374199Y566322D01*
X374149Y566236D01*
X374095Y566152D01*
X374038Y566070D01*
X373978Y565991D01*
X373914Y565913D01*
X373848Y565839D01*
X373779Y565767D01*
X373707Y565698D01*
X373633Y565632D01*
X373555Y565568D01*
X373476Y565508D01*
X373394Y565451D01*
X373310Y565397D01*
X373224Y565347D01*
X373136Y565300D01*
X373046Y565256D01*
X372955Y565216D01*
X372862Y565180D01*
X372768Y565147D01*
X372672Y565118D01*
X372576Y565093D01*
X372479Y565072D01*
X372380Y565054D01*
X372282Y565041D01*
X372182Y565031D01*
X372083Y565025D01*
X371983Y565023D01*
X371842Y565025D01*
X371701Y565030D01*
X371560Y565040D01*
X371419Y565053D01*
X371279Y565069D01*
X371139Y565090D01*
X371000Y565114D01*
X370861Y565142D01*
X370724Y565173D01*
X370587Y565208D01*
X370451Y565246D01*
X370316Y565288D01*
X370183Y565334D01*
X370050Y565383D01*
X369919Y565436D01*
X369790Y565492D01*
X369661Y565551D01*
X369535Y565614D01*
X369410Y565680D01*
X369287Y565749D01*
X369166Y565822D01*
X369047Y565898D01*
X368929Y565977D01*
X368814Y566058D01*
X368702Y566143D01*
X368591Y566231D01*
X368483Y566322D01*
X368377Y566415D01*
X368274Y566512D01*
X368173Y566611D01*
X368491Y573913D02*
X368493Y574013D01*
X368499Y574112D01*
X368509Y574212D01*
X368522Y574310D01*
X368540Y574409D01*
X368561Y574506D01*
X368586Y574602D01*
X368615Y574698D01*
X368648Y574792D01*
X368684Y574885D01*
X368724Y574976D01*
X368768Y575066D01*
X368815Y575154D01*
X368865Y575240D01*
X368919Y575324D01*
X368976Y575406D01*
X369036Y575485D01*
X369100Y575563D01*
X369166Y575637D01*
X369235Y575709D01*
X369307Y575778D01*
X369381Y575844D01*
X369459Y575908D01*
X369538Y575968D01*
X369620Y576025D01*
X369704Y576079D01*
X369790Y576129D01*
X369878Y576176D01*
X369968Y576220D01*
X370059Y576260D01*
X370152Y576296D01*
X370246Y576329D01*
X370342Y576358D01*
X370438Y576383D01*
X370535Y576404D01*
X370634Y576422D01*
X370732Y576435D01*
X370832Y576445D01*
X370931Y576451D01*
X371031Y576453D01*
X371031Y576454D02*
X371164Y576452D01*
X371297Y576447D01*
X371430Y576437D01*
X371563Y576424D01*
X371695Y576407D01*
X371827Y576387D01*
X371958Y576363D01*
X372088Y576335D01*
X372218Y576304D01*
X372346Y576269D01*
X372474Y576230D01*
X372600Y576188D01*
X372725Y576142D01*
X372849Y576093D01*
X372972Y576041D01*
X373093Y575985D01*
X373212Y575925D01*
X373330Y575863D01*
X373445Y575797D01*
X373559Y575728D01*
X373671Y575655D01*
X373781Y575580D01*
X373889Y575501D01*
X369760Y571690D02*
X369676Y571742D01*
X369593Y571797D01*
X369513Y571856D01*
X369435Y571917D01*
X369360Y571981D01*
X369287Y572049D01*
X369216Y572119D01*
X369149Y572191D01*
X369084Y572266D01*
X369022Y572344D01*
X368963Y572424D01*
X368907Y572506D01*
X368855Y572590D01*
X368806Y572676D01*
X368760Y572764D01*
X368717Y572854D01*
X368678Y572945D01*
X368643Y573038D01*
X368611Y573132D01*
X368583Y573227D01*
X368558Y573323D01*
X368538Y573420D01*
X368520Y573518D01*
X368507Y573616D01*
X368498Y573715D01*
X368492Y573814D01*
X368490Y573913D01*
X373253Y569786D02*
X373337Y569734D01*
X373420Y569679D01*
X373500Y569620D01*
X373578Y569559D01*
X373653Y569495D01*
X373726Y569427D01*
X373797Y569357D01*
X373864Y569285D01*
X373929Y569210D01*
X373991Y569132D01*
X374050Y569052D01*
X374106Y568970D01*
X374158Y568886D01*
X374207Y568800D01*
X374253Y568712D01*
X374296Y568622D01*
X374335Y568531D01*
X374370Y568438D01*
X374402Y568344D01*
X374430Y568249D01*
X374455Y568153D01*
X374475Y568056D01*
X374493Y567958D01*
X374506Y567860D01*
X374515Y567761D01*
X374521Y567662D01*
X374523Y567563D01*
X373253Y569786D02*
X369761Y571691D01*
X379628Y565023D02*
X384708Y565023D01*
X379628Y565023D02*
X379628Y576453D01*
X384708Y576453D01*
X383438Y571373D02*
X379628Y571373D01*
X389592Y576453D02*
X389592Y565023D01*
X389592Y576453D02*
X392767Y576453D01*
X392878Y576451D01*
X392988Y576445D01*
X393099Y576436D01*
X393209Y576422D01*
X393318Y576405D01*
X393427Y576384D01*
X393535Y576359D01*
X393642Y576330D01*
X393748Y576298D01*
X393853Y576262D01*
X393956Y576222D01*
X394058Y576179D01*
X394159Y576132D01*
X394258Y576081D01*
X394355Y576028D01*
X394449Y575971D01*
X394542Y575910D01*
X394633Y575847D01*
X394722Y575780D01*
X394808Y575710D01*
X394891Y575637D01*
X394973Y575562D01*
X395051Y575484D01*
X395126Y575402D01*
X395199Y575319D01*
X395269Y575233D01*
X395336Y575144D01*
X395399Y575053D01*
X395460Y574960D01*
X395517Y574865D01*
X395570Y574769D01*
X395621Y574670D01*
X395668Y574569D01*
X395711Y574467D01*
X395751Y574364D01*
X395787Y574259D01*
X395819Y574153D01*
X395848Y574046D01*
X395873Y573938D01*
X395894Y573829D01*
X395911Y573720D01*
X395925Y573610D01*
X395934Y573499D01*
X395940Y573389D01*
X395942Y573278D01*
X395940Y573167D01*
X395934Y573057D01*
X395925Y572946D01*
X395911Y572836D01*
X395894Y572727D01*
X395873Y572618D01*
X395848Y572510D01*
X395819Y572403D01*
X395787Y572297D01*
X395751Y572192D01*
X395711Y572089D01*
X395668Y571987D01*
X395621Y571886D01*
X395570Y571787D01*
X395517Y571691D01*
X395460Y571596D01*
X395399Y571503D01*
X395336Y571412D01*
X395269Y571323D01*
X395199Y571237D01*
X395126Y571154D01*
X395051Y571072D01*
X394973Y570994D01*
X394891Y570919D01*
X394808Y570846D01*
X394722Y570776D01*
X394633Y570709D01*
X394542Y570646D01*
X394449Y570585D01*
X394355Y570528D01*
X394258Y570475D01*
X394159Y570424D01*
X394058Y570377D01*
X393956Y570334D01*
X393853Y570294D01*
X393748Y570258D01*
X393642Y570226D01*
X393535Y570197D01*
X393427Y570172D01*
X393318Y570151D01*
X393209Y570134D01*
X393099Y570120D01*
X392988Y570111D01*
X392878Y570105D01*
X392767Y570103D01*
X389592Y570103D01*
X393402Y570103D02*
X395942Y565023D01*
X404114Y565023D02*
X400304Y576453D01*
X407924Y576453D02*
X404114Y565023D01*
X412369Y568198D02*
X412369Y573278D01*
X412371Y573389D01*
X412377Y573499D01*
X412386Y573610D01*
X412400Y573720D01*
X412417Y573829D01*
X412438Y573938D01*
X412463Y574046D01*
X412492Y574153D01*
X412524Y574259D01*
X412560Y574364D01*
X412600Y574467D01*
X412643Y574569D01*
X412690Y574670D01*
X412741Y574769D01*
X412794Y574866D01*
X412851Y574960D01*
X412912Y575053D01*
X412975Y575144D01*
X413042Y575233D01*
X413112Y575319D01*
X413185Y575402D01*
X413260Y575484D01*
X413338Y575562D01*
X413420Y575637D01*
X413503Y575710D01*
X413589Y575780D01*
X413678Y575847D01*
X413769Y575910D01*
X413862Y575971D01*
X413957Y576028D01*
X414053Y576081D01*
X414152Y576132D01*
X414253Y576179D01*
X414355Y576222D01*
X414458Y576262D01*
X414563Y576298D01*
X414669Y576330D01*
X414776Y576359D01*
X414884Y576384D01*
X414993Y576405D01*
X415102Y576422D01*
X415212Y576436D01*
X415323Y576445D01*
X415433Y576451D01*
X415544Y576453D01*
X415655Y576451D01*
X415765Y576445D01*
X415876Y576436D01*
X415986Y576422D01*
X416095Y576405D01*
X416204Y576384D01*
X416312Y576359D01*
X416419Y576330D01*
X416525Y576298D01*
X416630Y576262D01*
X416733Y576222D01*
X416835Y576179D01*
X416936Y576132D01*
X417035Y576081D01*
X417132Y576028D01*
X417226Y575971D01*
X417319Y575910D01*
X417410Y575847D01*
X417499Y575780D01*
X417585Y575710D01*
X417668Y575637D01*
X417750Y575562D01*
X417828Y575484D01*
X417903Y575402D01*
X417976Y575319D01*
X418046Y575233D01*
X418113Y575144D01*
X418176Y575053D01*
X418237Y574960D01*
X418294Y574866D01*
X418347Y574769D01*
X418398Y574670D01*
X418445Y574569D01*
X418488Y574467D01*
X418528Y574364D01*
X418564Y574259D01*
X418596Y574153D01*
X418625Y574046D01*
X418650Y573938D01*
X418671Y573829D01*
X418688Y573720D01*
X418702Y573610D01*
X418711Y573499D01*
X418717Y573389D01*
X418719Y573278D01*
X418719Y568198D01*
X418717Y568087D01*
X418711Y567977D01*
X418702Y567866D01*
X418688Y567756D01*
X418671Y567647D01*
X418650Y567538D01*
X418625Y567430D01*
X418596Y567323D01*
X418564Y567217D01*
X418528Y567112D01*
X418488Y567009D01*
X418445Y566907D01*
X418398Y566806D01*
X418347Y566707D01*
X418294Y566611D01*
X418237Y566516D01*
X418176Y566423D01*
X418113Y566332D01*
X418046Y566243D01*
X417976Y566157D01*
X417903Y566074D01*
X417828Y565992D01*
X417750Y565914D01*
X417668Y565839D01*
X417585Y565766D01*
X417499Y565696D01*
X417410Y565629D01*
X417319Y565566D01*
X417226Y565505D01*
X417131Y565448D01*
X417035Y565395D01*
X416936Y565344D01*
X416835Y565297D01*
X416733Y565254D01*
X416630Y565214D01*
X416525Y565178D01*
X416419Y565146D01*
X416312Y565117D01*
X416204Y565092D01*
X416095Y565071D01*
X415986Y565054D01*
X415876Y565040D01*
X415765Y565031D01*
X415655Y565025D01*
X415544Y565023D01*
X415433Y565025D01*
X415323Y565031D01*
X415212Y565040D01*
X415102Y565054D01*
X414993Y565071D01*
X414884Y565092D01*
X414776Y565117D01*
X414669Y565146D01*
X414563Y565178D01*
X414458Y565214D01*
X414355Y565254D01*
X414253Y565297D01*
X414152Y565344D01*
X414053Y565395D01*
X413957Y565448D01*
X413862Y565505D01*
X413769Y565566D01*
X413678Y565629D01*
X413589Y565696D01*
X413503Y565766D01*
X413420Y565839D01*
X413338Y565914D01*
X413260Y565992D01*
X413185Y566074D01*
X413112Y566157D01*
X413042Y566243D01*
X412975Y566332D01*
X412912Y566423D01*
X412851Y566516D01*
X412794Y566611D01*
X412741Y566707D01*
X412690Y566806D01*
X412643Y566907D01*
X412600Y567009D01*
X412560Y567112D01*
X412524Y567217D01*
X412492Y567323D01*
X412463Y567430D01*
X412438Y567538D01*
X412417Y567647D01*
X412400Y567756D01*
X412386Y567866D01*
X412377Y567977D01*
X412371Y568087D01*
X412369Y568198D01*
X423799Y573913D02*
X426974Y576453D01*
X426974Y565023D01*
X423799Y565023D02*
X430149Y565023D01*
D12*
X584200Y234950D02*
X584200Y222250D01*
X584200Y234950D02*
X590550Y241300D01*
X603250Y241300D01*
X609600Y234950D01*
X590550Y241300D02*
X584200Y247650D01*
X584200Y260350D01*
X590550Y266700D01*
X603250Y266700D01*
X609600Y260350D01*
X609600Y247650D01*
X603250Y241300D01*
X603250Y215900D02*
X590550Y215900D01*
X584200Y222250D01*
X603250Y215900D02*
X609600Y222250D01*
X609600Y234950D01*
X590550Y266700D02*
X584200Y273050D01*
X584200Y285750D01*
X590550Y292100D01*
X603250Y292100D01*
X609600Y285750D01*
X609600Y273050D01*
X603250Y266700D01*
D13*
X575437Y222123D02*
X575537Y222121D01*
X575636Y222115D01*
X575736Y222105D01*
X575834Y222092D01*
X575933Y222074D01*
X576030Y222053D01*
X576126Y222028D01*
X576222Y221999D01*
X576316Y221966D01*
X576409Y221930D01*
X576500Y221890D01*
X576590Y221846D01*
X576678Y221799D01*
X576764Y221749D01*
X576848Y221695D01*
X576930Y221638D01*
X577009Y221578D01*
X577087Y221514D01*
X577161Y221448D01*
X577233Y221379D01*
X577302Y221307D01*
X577368Y221233D01*
X577432Y221155D01*
X577492Y221076D01*
X577549Y220994D01*
X577603Y220910D01*
X577653Y220824D01*
X577700Y220736D01*
X577744Y220646D01*
X577784Y220555D01*
X577820Y220462D01*
X577853Y220368D01*
X577882Y220272D01*
X577907Y220176D01*
X577928Y220079D01*
X577946Y219980D01*
X577959Y219882D01*
X577969Y219782D01*
X577975Y219683D01*
X577977Y219583D01*
X577975Y219442D01*
X577970Y219301D01*
X577960Y219160D01*
X577947Y219019D01*
X577931Y218879D01*
X577910Y218739D01*
X577886Y218600D01*
X577858Y218461D01*
X577827Y218324D01*
X577792Y218187D01*
X577754Y218051D01*
X577712Y217916D01*
X577666Y217783D01*
X577617Y217650D01*
X577564Y217519D01*
X577508Y217390D01*
X577449Y217261D01*
X577386Y217135D01*
X577320Y217010D01*
X577251Y216887D01*
X577178Y216766D01*
X577102Y216647D01*
X577023Y216529D01*
X576942Y216414D01*
X576857Y216302D01*
X576769Y216191D01*
X576678Y216083D01*
X576585Y215977D01*
X576488Y215874D01*
X576389Y215773D01*
X569087Y216091D02*
X568987Y216093D01*
X568888Y216099D01*
X568788Y216109D01*
X568690Y216122D01*
X568591Y216140D01*
X568494Y216161D01*
X568398Y216186D01*
X568302Y216215D01*
X568208Y216248D01*
X568115Y216284D01*
X568024Y216324D01*
X567934Y216368D01*
X567846Y216415D01*
X567760Y216465D01*
X567676Y216519D01*
X567594Y216576D01*
X567515Y216636D01*
X567437Y216700D01*
X567363Y216766D01*
X567291Y216835D01*
X567222Y216907D01*
X567156Y216981D01*
X567092Y217059D01*
X567032Y217138D01*
X566975Y217220D01*
X566921Y217304D01*
X566871Y217390D01*
X566824Y217478D01*
X566780Y217568D01*
X566740Y217659D01*
X566704Y217752D01*
X566671Y217846D01*
X566642Y217942D01*
X566617Y218038D01*
X566596Y218135D01*
X566578Y218234D01*
X566565Y218332D01*
X566555Y218432D01*
X566549Y218531D01*
X566547Y218631D01*
X566549Y218764D01*
X566554Y218897D01*
X566564Y219030D01*
X566577Y219163D01*
X566594Y219295D01*
X566614Y219427D01*
X566638Y219558D01*
X566666Y219688D01*
X566697Y219818D01*
X566732Y219946D01*
X566771Y220074D01*
X566813Y220200D01*
X566859Y220325D01*
X566908Y220449D01*
X566960Y220572D01*
X567016Y220693D01*
X567076Y220812D01*
X567138Y220930D01*
X567204Y221045D01*
X567273Y221159D01*
X567346Y221271D01*
X567421Y221381D01*
X567500Y221489D01*
X571310Y217360D02*
X571258Y217276D01*
X571203Y217193D01*
X571144Y217113D01*
X571083Y217035D01*
X571019Y216960D01*
X570951Y216887D01*
X570881Y216816D01*
X570809Y216749D01*
X570734Y216684D01*
X570656Y216622D01*
X570576Y216563D01*
X570494Y216507D01*
X570410Y216455D01*
X570324Y216406D01*
X570236Y216360D01*
X570146Y216317D01*
X570055Y216278D01*
X569962Y216243D01*
X569868Y216211D01*
X569773Y216183D01*
X569677Y216158D01*
X569580Y216138D01*
X569482Y216120D01*
X569384Y216107D01*
X569285Y216098D01*
X569186Y216092D01*
X569087Y216090D01*
X573214Y220853D02*
X573266Y220937D01*
X573321Y221020D01*
X573380Y221100D01*
X573441Y221178D01*
X573505Y221253D01*
X573573Y221326D01*
X573643Y221397D01*
X573715Y221464D01*
X573790Y221529D01*
X573868Y221591D01*
X573948Y221650D01*
X574030Y221706D01*
X574114Y221758D01*
X574200Y221807D01*
X574288Y221853D01*
X574378Y221896D01*
X574469Y221935D01*
X574562Y221970D01*
X574656Y222002D01*
X574751Y222030D01*
X574847Y222055D01*
X574944Y222075D01*
X575042Y222093D01*
X575140Y222106D01*
X575239Y222115D01*
X575338Y222121D01*
X575437Y222123D01*
X573215Y220853D02*
X571310Y217361D01*
X577977Y227228D02*
X577977Y232308D01*
X577977Y227228D02*
X566547Y227228D01*
X566547Y232308D01*
X571627Y231038D02*
X571627Y227228D01*
X566547Y237192D02*
X577977Y237192D01*
X566547Y237192D02*
X566547Y240367D01*
X566549Y240478D01*
X566555Y240588D01*
X566564Y240699D01*
X566578Y240809D01*
X566595Y240918D01*
X566616Y241027D01*
X566641Y241135D01*
X566670Y241242D01*
X566702Y241348D01*
X566738Y241453D01*
X566778Y241556D01*
X566821Y241658D01*
X566868Y241759D01*
X566919Y241858D01*
X566972Y241955D01*
X567029Y242049D01*
X567090Y242142D01*
X567153Y242233D01*
X567220Y242322D01*
X567290Y242408D01*
X567363Y242491D01*
X567438Y242573D01*
X567516Y242651D01*
X567598Y242726D01*
X567681Y242799D01*
X567767Y242869D01*
X567856Y242936D01*
X567947Y242999D01*
X568040Y243060D01*
X568135Y243117D01*
X568231Y243170D01*
X568330Y243221D01*
X568431Y243268D01*
X568533Y243311D01*
X568636Y243351D01*
X568741Y243387D01*
X568847Y243419D01*
X568954Y243448D01*
X569062Y243473D01*
X569171Y243494D01*
X569280Y243511D01*
X569390Y243525D01*
X569501Y243534D01*
X569611Y243540D01*
X569722Y243542D01*
X569833Y243540D01*
X569943Y243534D01*
X570054Y243525D01*
X570164Y243511D01*
X570273Y243494D01*
X570382Y243473D01*
X570490Y243448D01*
X570597Y243419D01*
X570703Y243387D01*
X570808Y243351D01*
X570911Y243311D01*
X571013Y243268D01*
X571114Y243221D01*
X571213Y243170D01*
X571310Y243117D01*
X571404Y243060D01*
X571497Y242999D01*
X571588Y242936D01*
X571677Y242869D01*
X571763Y242799D01*
X571846Y242726D01*
X571928Y242651D01*
X572006Y242573D01*
X572081Y242491D01*
X572154Y242408D01*
X572224Y242322D01*
X572291Y242233D01*
X572354Y242142D01*
X572415Y242049D01*
X572472Y241955D01*
X572525Y241858D01*
X572576Y241759D01*
X572623Y241658D01*
X572666Y241556D01*
X572706Y241453D01*
X572742Y241348D01*
X572774Y241242D01*
X572803Y241135D01*
X572828Y241027D01*
X572849Y240918D01*
X572866Y240809D01*
X572880Y240699D01*
X572889Y240588D01*
X572895Y240478D01*
X572897Y240367D01*
X572897Y237192D01*
X572897Y241002D02*
X577977Y243542D01*
X577977Y251714D02*
X566547Y247904D01*
X566547Y255524D02*
X577977Y251714D01*
X574802Y259969D02*
X569722Y259969D01*
X569611Y259971D01*
X569501Y259977D01*
X569390Y259986D01*
X569280Y260000D01*
X569171Y260017D01*
X569062Y260038D01*
X568954Y260063D01*
X568847Y260092D01*
X568741Y260124D01*
X568636Y260160D01*
X568533Y260200D01*
X568431Y260243D01*
X568330Y260290D01*
X568231Y260341D01*
X568135Y260394D01*
X568040Y260451D01*
X567947Y260512D01*
X567856Y260575D01*
X567767Y260642D01*
X567681Y260712D01*
X567598Y260785D01*
X567516Y260860D01*
X567438Y260938D01*
X567363Y261020D01*
X567290Y261103D01*
X567220Y261189D01*
X567153Y261278D01*
X567090Y261369D01*
X567029Y261462D01*
X566972Y261557D01*
X566919Y261653D01*
X566868Y261752D01*
X566821Y261853D01*
X566778Y261955D01*
X566738Y262058D01*
X566702Y262163D01*
X566670Y262269D01*
X566641Y262376D01*
X566616Y262484D01*
X566595Y262593D01*
X566578Y262702D01*
X566564Y262812D01*
X566555Y262923D01*
X566549Y263033D01*
X566547Y263144D01*
X566549Y263255D01*
X566555Y263365D01*
X566564Y263476D01*
X566578Y263586D01*
X566595Y263695D01*
X566616Y263804D01*
X566641Y263912D01*
X566670Y264019D01*
X566702Y264125D01*
X566738Y264230D01*
X566778Y264333D01*
X566821Y264435D01*
X566868Y264536D01*
X566919Y264635D01*
X566972Y264732D01*
X567029Y264826D01*
X567090Y264919D01*
X567153Y265010D01*
X567220Y265099D01*
X567290Y265185D01*
X567363Y265268D01*
X567438Y265350D01*
X567516Y265428D01*
X567598Y265503D01*
X567681Y265576D01*
X567767Y265646D01*
X567856Y265713D01*
X567947Y265776D01*
X568040Y265837D01*
X568135Y265894D01*
X568231Y265947D01*
X568330Y265998D01*
X568431Y266045D01*
X568533Y266088D01*
X568636Y266128D01*
X568741Y266164D01*
X568847Y266196D01*
X568954Y266225D01*
X569062Y266250D01*
X569171Y266271D01*
X569280Y266288D01*
X569390Y266302D01*
X569501Y266311D01*
X569611Y266317D01*
X569722Y266319D01*
X574802Y266319D01*
X574913Y266317D01*
X575023Y266311D01*
X575134Y266302D01*
X575244Y266288D01*
X575353Y266271D01*
X575462Y266250D01*
X575570Y266225D01*
X575677Y266196D01*
X575783Y266164D01*
X575888Y266128D01*
X575991Y266088D01*
X576093Y266045D01*
X576194Y265998D01*
X576293Y265947D01*
X576390Y265894D01*
X576484Y265837D01*
X576577Y265776D01*
X576668Y265713D01*
X576757Y265646D01*
X576843Y265576D01*
X576926Y265503D01*
X577008Y265428D01*
X577086Y265350D01*
X577161Y265268D01*
X577234Y265185D01*
X577304Y265099D01*
X577371Y265010D01*
X577434Y264919D01*
X577495Y264826D01*
X577552Y264731D01*
X577605Y264635D01*
X577656Y264536D01*
X577703Y264435D01*
X577746Y264333D01*
X577786Y264230D01*
X577822Y264125D01*
X577854Y264019D01*
X577883Y263912D01*
X577908Y263804D01*
X577929Y263695D01*
X577946Y263586D01*
X577960Y263476D01*
X577969Y263365D01*
X577975Y263255D01*
X577977Y263144D01*
X577975Y263033D01*
X577969Y262923D01*
X577960Y262812D01*
X577946Y262702D01*
X577929Y262593D01*
X577908Y262484D01*
X577883Y262376D01*
X577854Y262269D01*
X577822Y262163D01*
X577786Y262058D01*
X577746Y261955D01*
X577703Y261853D01*
X577656Y261752D01*
X577605Y261653D01*
X577552Y261556D01*
X577495Y261462D01*
X577434Y261369D01*
X577371Y261278D01*
X577304Y261189D01*
X577234Y261103D01*
X577161Y261020D01*
X577086Y260938D01*
X577008Y260860D01*
X576926Y260785D01*
X576843Y260712D01*
X576757Y260642D01*
X576668Y260575D01*
X576577Y260512D01*
X576484Y260451D01*
X576390Y260394D01*
X576293Y260341D01*
X576194Y260290D01*
X576093Y260243D01*
X575991Y260200D01*
X575888Y260160D01*
X575783Y260124D01*
X575677Y260092D01*
X575570Y260063D01*
X575462Y260038D01*
X575353Y260017D01*
X575244Y260000D01*
X575134Y259986D01*
X575023Y259977D01*
X574913Y259971D01*
X574802Y259969D01*
X566547Y274891D02*
X566549Y274995D01*
X566555Y275100D01*
X566564Y275204D01*
X566577Y275307D01*
X566595Y275410D01*
X566615Y275512D01*
X566640Y275614D01*
X566668Y275714D01*
X566700Y275814D01*
X566736Y275912D01*
X566775Y276009D01*
X566817Y276104D01*
X566863Y276198D01*
X566913Y276290D01*
X566965Y276380D01*
X567021Y276468D01*
X567081Y276554D01*
X567143Y276638D01*
X567208Y276719D01*
X567276Y276798D01*
X567348Y276875D01*
X567421Y276948D01*
X567498Y277020D01*
X567577Y277088D01*
X567658Y277153D01*
X567742Y277215D01*
X567828Y277275D01*
X567916Y277331D01*
X568006Y277383D01*
X568098Y277433D01*
X568192Y277479D01*
X568287Y277521D01*
X568384Y277560D01*
X568482Y277596D01*
X568582Y277628D01*
X568682Y277656D01*
X568784Y277681D01*
X568886Y277701D01*
X568989Y277719D01*
X569092Y277732D01*
X569196Y277741D01*
X569301Y277747D01*
X569405Y277749D01*
X566547Y274891D02*
X566549Y274773D01*
X566555Y274654D01*
X566564Y274536D01*
X566577Y274419D01*
X566595Y274302D01*
X566615Y274185D01*
X566640Y274069D01*
X566668Y273954D01*
X566701Y273841D01*
X566736Y273728D01*
X566776Y273616D01*
X566818Y273506D01*
X566865Y273397D01*
X566915Y273289D01*
X566968Y273184D01*
X567025Y273080D01*
X567085Y272978D01*
X567148Y272878D01*
X567215Y272780D01*
X567284Y272684D01*
X567357Y272591D01*
X567433Y272500D01*
X567511Y272411D01*
X567593Y272325D01*
X567677Y272242D01*
X567763Y272161D01*
X567853Y272084D01*
X567944Y272009D01*
X568038Y271937D01*
X568135Y271868D01*
X568233Y271803D01*
X568334Y271740D01*
X568437Y271681D01*
X568541Y271625D01*
X568647Y271573D01*
X568755Y271524D01*
X568864Y271479D01*
X568975Y271437D01*
X569087Y271399D01*
X571627Y276797D02*
X571552Y276873D01*
X571473Y276948D01*
X571392Y277019D01*
X571308Y277088D01*
X571222Y277153D01*
X571134Y277215D01*
X571044Y277275D01*
X570952Y277331D01*
X570857Y277384D01*
X570761Y277433D01*
X570663Y277479D01*
X570564Y277522D01*
X570463Y277561D01*
X570361Y277596D01*
X570258Y277628D01*
X570154Y277656D01*
X570049Y277681D01*
X569942Y277702D01*
X569836Y277719D01*
X569729Y277732D01*
X569621Y277741D01*
X569513Y277747D01*
X569405Y277749D01*
X571627Y276796D02*
X577977Y271399D01*
X577977Y277749D01*
D12*
X57150Y273050D02*
X57150Y285750D01*
X57150Y273050D02*
X50800Y266700D01*
X38100Y266700D01*
X31750Y273050D01*
X50800Y266700D02*
X57150Y260350D01*
X57150Y247650D01*
X50800Y241300D01*
X38100Y241300D01*
X31750Y247650D01*
X31750Y260350D01*
X38100Y266700D01*
X38100Y292100D02*
X50800Y292100D01*
X57150Y285750D01*
X38100Y292100D02*
X31750Y285750D01*
X31750Y273050D01*
X50800Y241300D02*
X57150Y234950D01*
X57150Y222250D01*
X50800Y215900D01*
X38100Y215900D01*
X31750Y222250D01*
X31750Y234950D01*
X38100Y241300D01*
D13*
X72263Y236601D02*
X72363Y236599D01*
X72462Y236593D01*
X72562Y236583D01*
X72660Y236570D01*
X72759Y236552D01*
X72856Y236531D01*
X72952Y236506D01*
X73048Y236477D01*
X73142Y236444D01*
X73235Y236408D01*
X73326Y236368D01*
X73416Y236324D01*
X73504Y236277D01*
X73590Y236227D01*
X73674Y236173D01*
X73756Y236116D01*
X73835Y236056D01*
X73913Y235992D01*
X73987Y235926D01*
X74059Y235857D01*
X74128Y235785D01*
X74194Y235711D01*
X74258Y235633D01*
X74318Y235554D01*
X74375Y235472D01*
X74429Y235388D01*
X74479Y235302D01*
X74526Y235214D01*
X74570Y235124D01*
X74610Y235033D01*
X74646Y234940D01*
X74679Y234846D01*
X74708Y234750D01*
X74733Y234654D01*
X74754Y234557D01*
X74772Y234458D01*
X74785Y234360D01*
X74795Y234260D01*
X74801Y234161D01*
X74803Y234061D01*
X74801Y233920D01*
X74796Y233779D01*
X74786Y233638D01*
X74773Y233497D01*
X74757Y233357D01*
X74736Y233217D01*
X74712Y233078D01*
X74684Y232939D01*
X74653Y232802D01*
X74618Y232665D01*
X74580Y232529D01*
X74538Y232394D01*
X74492Y232261D01*
X74443Y232128D01*
X74390Y231997D01*
X74334Y231868D01*
X74275Y231739D01*
X74212Y231613D01*
X74146Y231488D01*
X74077Y231365D01*
X74004Y231244D01*
X73928Y231125D01*
X73849Y231007D01*
X73768Y230892D01*
X73683Y230780D01*
X73595Y230669D01*
X73504Y230561D01*
X73411Y230455D01*
X73314Y230352D01*
X73215Y230251D01*
X65913Y230569D02*
X65813Y230571D01*
X65714Y230577D01*
X65614Y230587D01*
X65516Y230600D01*
X65417Y230618D01*
X65320Y230639D01*
X65224Y230664D01*
X65128Y230693D01*
X65034Y230726D01*
X64941Y230762D01*
X64850Y230802D01*
X64760Y230846D01*
X64672Y230893D01*
X64586Y230943D01*
X64502Y230997D01*
X64420Y231054D01*
X64341Y231114D01*
X64263Y231178D01*
X64189Y231244D01*
X64117Y231313D01*
X64048Y231385D01*
X63982Y231459D01*
X63918Y231537D01*
X63858Y231616D01*
X63801Y231698D01*
X63747Y231782D01*
X63697Y231868D01*
X63650Y231956D01*
X63606Y232046D01*
X63566Y232137D01*
X63530Y232230D01*
X63497Y232324D01*
X63468Y232420D01*
X63443Y232516D01*
X63422Y232613D01*
X63404Y232712D01*
X63391Y232810D01*
X63381Y232910D01*
X63375Y233009D01*
X63373Y233109D01*
X63375Y233242D01*
X63380Y233375D01*
X63390Y233508D01*
X63403Y233641D01*
X63420Y233773D01*
X63440Y233905D01*
X63464Y234036D01*
X63492Y234166D01*
X63523Y234296D01*
X63558Y234424D01*
X63597Y234552D01*
X63639Y234678D01*
X63685Y234803D01*
X63734Y234927D01*
X63786Y235050D01*
X63842Y235171D01*
X63902Y235290D01*
X63964Y235408D01*
X64030Y235523D01*
X64099Y235637D01*
X64172Y235749D01*
X64247Y235859D01*
X64326Y235967D01*
X68136Y231838D02*
X68084Y231754D01*
X68029Y231671D01*
X67970Y231591D01*
X67909Y231513D01*
X67845Y231438D01*
X67777Y231365D01*
X67707Y231294D01*
X67635Y231227D01*
X67560Y231162D01*
X67482Y231100D01*
X67402Y231041D01*
X67320Y230985D01*
X67236Y230933D01*
X67150Y230884D01*
X67062Y230838D01*
X66972Y230795D01*
X66881Y230756D01*
X66788Y230721D01*
X66694Y230689D01*
X66599Y230661D01*
X66503Y230636D01*
X66406Y230616D01*
X66308Y230598D01*
X66210Y230585D01*
X66111Y230576D01*
X66012Y230570D01*
X65913Y230568D01*
X70040Y235331D02*
X70092Y235415D01*
X70147Y235498D01*
X70206Y235578D01*
X70267Y235656D01*
X70331Y235731D01*
X70399Y235804D01*
X70469Y235875D01*
X70541Y235942D01*
X70616Y236007D01*
X70694Y236069D01*
X70774Y236128D01*
X70856Y236184D01*
X70940Y236236D01*
X71026Y236285D01*
X71114Y236331D01*
X71204Y236374D01*
X71295Y236413D01*
X71388Y236448D01*
X71482Y236480D01*
X71577Y236508D01*
X71673Y236533D01*
X71770Y236553D01*
X71868Y236571D01*
X71966Y236584D01*
X72065Y236593D01*
X72164Y236599D01*
X72263Y236601D01*
X70041Y235331D02*
X68136Y231839D01*
X74803Y241706D02*
X74803Y246786D01*
X74803Y241706D02*
X63373Y241706D01*
X63373Y246786D01*
X68453Y245516D02*
X68453Y241706D01*
X63373Y251670D02*
X74803Y251670D01*
X63373Y251670D02*
X63373Y254845D01*
X63375Y254956D01*
X63381Y255066D01*
X63390Y255177D01*
X63404Y255287D01*
X63421Y255396D01*
X63442Y255505D01*
X63467Y255613D01*
X63496Y255720D01*
X63528Y255826D01*
X63564Y255931D01*
X63604Y256034D01*
X63647Y256136D01*
X63694Y256237D01*
X63745Y256336D01*
X63798Y256433D01*
X63855Y256527D01*
X63916Y256620D01*
X63979Y256711D01*
X64046Y256800D01*
X64116Y256886D01*
X64189Y256969D01*
X64264Y257051D01*
X64342Y257129D01*
X64424Y257204D01*
X64507Y257277D01*
X64593Y257347D01*
X64682Y257414D01*
X64773Y257477D01*
X64866Y257538D01*
X64960Y257595D01*
X65057Y257648D01*
X65156Y257699D01*
X65257Y257746D01*
X65359Y257789D01*
X65462Y257829D01*
X65567Y257865D01*
X65673Y257897D01*
X65780Y257926D01*
X65888Y257951D01*
X65997Y257972D01*
X66106Y257989D01*
X66216Y258003D01*
X66327Y258012D01*
X66437Y258018D01*
X66548Y258020D01*
X66659Y258018D01*
X66769Y258012D01*
X66880Y258003D01*
X66990Y257989D01*
X67099Y257972D01*
X67208Y257951D01*
X67316Y257926D01*
X67423Y257897D01*
X67529Y257865D01*
X67634Y257829D01*
X67737Y257789D01*
X67839Y257746D01*
X67940Y257699D01*
X68039Y257648D01*
X68136Y257595D01*
X68230Y257538D01*
X68323Y257477D01*
X68414Y257414D01*
X68503Y257347D01*
X68589Y257277D01*
X68672Y257204D01*
X68754Y257129D01*
X68832Y257051D01*
X68907Y256969D01*
X68980Y256886D01*
X69050Y256800D01*
X69117Y256711D01*
X69180Y256620D01*
X69241Y256527D01*
X69298Y256433D01*
X69351Y256336D01*
X69402Y256237D01*
X69449Y256136D01*
X69492Y256034D01*
X69532Y255931D01*
X69568Y255826D01*
X69600Y255720D01*
X69629Y255613D01*
X69654Y255505D01*
X69675Y255396D01*
X69692Y255287D01*
X69706Y255177D01*
X69715Y255066D01*
X69721Y254956D01*
X69723Y254845D01*
X69723Y251670D01*
X69723Y255480D02*
X74803Y258020D01*
X74803Y266192D02*
X63373Y262382D01*
X63373Y270002D02*
X74803Y266192D01*
X71628Y274447D02*
X66548Y274447D01*
X66437Y274449D01*
X66327Y274455D01*
X66216Y274464D01*
X66106Y274478D01*
X65997Y274495D01*
X65888Y274516D01*
X65780Y274541D01*
X65673Y274570D01*
X65567Y274602D01*
X65462Y274638D01*
X65359Y274678D01*
X65257Y274721D01*
X65156Y274768D01*
X65057Y274819D01*
X64961Y274872D01*
X64866Y274929D01*
X64773Y274990D01*
X64682Y275053D01*
X64593Y275120D01*
X64507Y275190D01*
X64424Y275263D01*
X64342Y275338D01*
X64264Y275416D01*
X64189Y275498D01*
X64116Y275581D01*
X64046Y275667D01*
X63979Y275756D01*
X63916Y275847D01*
X63855Y275940D01*
X63798Y276035D01*
X63745Y276131D01*
X63694Y276230D01*
X63647Y276331D01*
X63604Y276433D01*
X63564Y276536D01*
X63528Y276641D01*
X63496Y276747D01*
X63467Y276854D01*
X63442Y276962D01*
X63421Y277071D01*
X63404Y277180D01*
X63390Y277290D01*
X63381Y277401D01*
X63375Y277511D01*
X63373Y277622D01*
X63375Y277733D01*
X63381Y277843D01*
X63390Y277954D01*
X63404Y278064D01*
X63421Y278173D01*
X63442Y278282D01*
X63467Y278390D01*
X63496Y278497D01*
X63528Y278603D01*
X63564Y278708D01*
X63604Y278811D01*
X63647Y278913D01*
X63694Y279014D01*
X63745Y279113D01*
X63798Y279210D01*
X63855Y279304D01*
X63916Y279397D01*
X63979Y279488D01*
X64046Y279577D01*
X64116Y279663D01*
X64189Y279746D01*
X64264Y279828D01*
X64342Y279906D01*
X64424Y279981D01*
X64507Y280054D01*
X64593Y280124D01*
X64682Y280191D01*
X64773Y280254D01*
X64866Y280315D01*
X64961Y280372D01*
X65057Y280425D01*
X65156Y280476D01*
X65257Y280523D01*
X65359Y280566D01*
X65462Y280606D01*
X65567Y280642D01*
X65673Y280674D01*
X65780Y280703D01*
X65888Y280728D01*
X65997Y280749D01*
X66106Y280766D01*
X66216Y280780D01*
X66327Y280789D01*
X66437Y280795D01*
X66548Y280797D01*
X71628Y280797D01*
X71739Y280795D01*
X71849Y280789D01*
X71960Y280780D01*
X72070Y280766D01*
X72179Y280749D01*
X72288Y280728D01*
X72396Y280703D01*
X72503Y280674D01*
X72609Y280642D01*
X72714Y280606D01*
X72817Y280566D01*
X72919Y280523D01*
X73020Y280476D01*
X73119Y280425D01*
X73216Y280372D01*
X73310Y280315D01*
X73403Y280254D01*
X73494Y280191D01*
X73583Y280124D01*
X73669Y280054D01*
X73752Y279981D01*
X73834Y279906D01*
X73912Y279828D01*
X73987Y279746D01*
X74060Y279663D01*
X74130Y279577D01*
X74197Y279488D01*
X74260Y279397D01*
X74321Y279304D01*
X74378Y279209D01*
X74431Y279113D01*
X74482Y279014D01*
X74529Y278913D01*
X74572Y278811D01*
X74612Y278708D01*
X74648Y278603D01*
X74680Y278497D01*
X74709Y278390D01*
X74734Y278282D01*
X74755Y278173D01*
X74772Y278064D01*
X74786Y277954D01*
X74795Y277843D01*
X74801Y277733D01*
X74803Y277622D01*
X74801Y277511D01*
X74795Y277401D01*
X74786Y277290D01*
X74772Y277180D01*
X74755Y277071D01*
X74734Y276962D01*
X74709Y276854D01*
X74680Y276747D01*
X74648Y276641D01*
X74612Y276536D01*
X74572Y276433D01*
X74529Y276331D01*
X74482Y276230D01*
X74431Y276131D01*
X74378Y276034D01*
X74321Y275940D01*
X74260Y275847D01*
X74197Y275756D01*
X74130Y275667D01*
X74060Y275581D01*
X73987Y275498D01*
X73912Y275416D01*
X73834Y275338D01*
X73752Y275263D01*
X73669Y275190D01*
X73583Y275120D01*
X73494Y275053D01*
X73403Y274990D01*
X73310Y274929D01*
X73215Y274872D01*
X73119Y274819D01*
X73020Y274768D01*
X72919Y274721D01*
X72817Y274678D01*
X72714Y274638D01*
X72609Y274602D01*
X72503Y274570D01*
X72396Y274541D01*
X72288Y274516D01*
X72179Y274495D01*
X72070Y274478D01*
X71960Y274464D01*
X71849Y274455D01*
X71739Y274449D01*
X71628Y274447D01*
X74803Y285877D02*
X74803Y289052D01*
X74801Y289163D01*
X74795Y289273D01*
X74786Y289384D01*
X74772Y289494D01*
X74755Y289603D01*
X74734Y289712D01*
X74709Y289820D01*
X74680Y289927D01*
X74648Y290033D01*
X74612Y290138D01*
X74572Y290241D01*
X74529Y290343D01*
X74482Y290444D01*
X74431Y290543D01*
X74378Y290640D01*
X74321Y290734D01*
X74260Y290827D01*
X74197Y290918D01*
X74130Y291007D01*
X74060Y291093D01*
X73987Y291176D01*
X73912Y291258D01*
X73834Y291336D01*
X73752Y291411D01*
X73669Y291484D01*
X73583Y291554D01*
X73494Y291621D01*
X73403Y291684D01*
X73310Y291745D01*
X73216Y291802D01*
X73119Y291855D01*
X73020Y291906D01*
X72919Y291953D01*
X72817Y291996D01*
X72714Y292036D01*
X72609Y292072D01*
X72503Y292104D01*
X72396Y292133D01*
X72288Y292158D01*
X72179Y292179D01*
X72070Y292196D01*
X71960Y292210D01*
X71849Y292219D01*
X71739Y292225D01*
X71628Y292227D01*
X71517Y292225D01*
X71407Y292219D01*
X71296Y292210D01*
X71186Y292196D01*
X71077Y292179D01*
X70968Y292158D01*
X70860Y292133D01*
X70753Y292104D01*
X70647Y292072D01*
X70542Y292036D01*
X70439Y291996D01*
X70337Y291953D01*
X70236Y291906D01*
X70137Y291855D01*
X70041Y291802D01*
X69946Y291745D01*
X69853Y291684D01*
X69762Y291621D01*
X69673Y291554D01*
X69587Y291484D01*
X69504Y291411D01*
X69422Y291336D01*
X69344Y291258D01*
X69269Y291176D01*
X69196Y291093D01*
X69126Y291007D01*
X69059Y290918D01*
X68996Y290827D01*
X68935Y290734D01*
X68878Y290640D01*
X68825Y290543D01*
X68774Y290444D01*
X68727Y290343D01*
X68684Y290241D01*
X68644Y290138D01*
X68608Y290033D01*
X68576Y289927D01*
X68547Y289820D01*
X68522Y289712D01*
X68501Y289603D01*
X68484Y289494D01*
X68470Y289384D01*
X68461Y289273D01*
X68455Y289163D01*
X68453Y289052D01*
X63373Y289687D02*
X63373Y285877D01*
X63373Y289687D02*
X63375Y289787D01*
X63381Y289886D01*
X63391Y289986D01*
X63404Y290084D01*
X63422Y290183D01*
X63443Y290280D01*
X63468Y290376D01*
X63497Y290472D01*
X63530Y290566D01*
X63566Y290659D01*
X63606Y290750D01*
X63650Y290840D01*
X63697Y290928D01*
X63747Y291014D01*
X63801Y291098D01*
X63858Y291180D01*
X63918Y291259D01*
X63982Y291337D01*
X64048Y291411D01*
X64117Y291483D01*
X64189Y291552D01*
X64263Y291618D01*
X64341Y291682D01*
X64420Y291742D01*
X64502Y291799D01*
X64586Y291853D01*
X64672Y291903D01*
X64760Y291950D01*
X64850Y291994D01*
X64941Y292034D01*
X65034Y292070D01*
X65128Y292103D01*
X65224Y292132D01*
X65320Y292157D01*
X65417Y292178D01*
X65516Y292196D01*
X65614Y292209D01*
X65714Y292219D01*
X65813Y292225D01*
X65913Y292227D01*
X66013Y292225D01*
X66112Y292219D01*
X66212Y292209D01*
X66310Y292196D01*
X66409Y292178D01*
X66506Y292157D01*
X66602Y292132D01*
X66698Y292103D01*
X66792Y292070D01*
X66885Y292034D01*
X66976Y291994D01*
X67066Y291950D01*
X67154Y291903D01*
X67240Y291853D01*
X67324Y291799D01*
X67406Y291742D01*
X67485Y291682D01*
X67563Y291618D01*
X67637Y291552D01*
X67709Y291483D01*
X67778Y291411D01*
X67844Y291337D01*
X67908Y291259D01*
X67968Y291180D01*
X68025Y291098D01*
X68079Y291014D01*
X68129Y290928D01*
X68176Y290840D01*
X68220Y290750D01*
X68260Y290659D01*
X68296Y290566D01*
X68329Y290472D01*
X68358Y290376D01*
X68383Y290280D01*
X68404Y290183D01*
X68422Y290084D01*
X68435Y289986D01*
X68445Y289886D01*
X68451Y289787D01*
X68453Y289687D01*
X68453Y287147D01*
D12*
X342900Y704850D02*
X355600Y704850D01*
X342900Y704850D02*
X336550Y711200D01*
X336550Y723900D01*
X342900Y730250D01*
X336550Y711200D02*
X330200Y704850D01*
X317500Y704850D01*
X311150Y711200D01*
X311150Y723900D01*
X317500Y730250D01*
X330200Y730250D01*
X336550Y723900D01*
X361950Y723900D02*
X361950Y711200D01*
X355600Y704850D01*
X361950Y723900D02*
X355600Y730250D01*
X342900Y730250D01*
X311150Y711200D02*
X304800Y704850D01*
X292100Y704850D01*
X285750Y711200D01*
X285750Y723900D01*
X292100Y730250D01*
X304800Y730250D01*
X311150Y723900D01*
D13*
X306451Y689737D02*
X306449Y689637D01*
X306443Y689538D01*
X306433Y689438D01*
X306420Y689340D01*
X306402Y689241D01*
X306381Y689144D01*
X306356Y689048D01*
X306327Y688952D01*
X306294Y688858D01*
X306258Y688765D01*
X306218Y688674D01*
X306174Y688584D01*
X306127Y688496D01*
X306077Y688410D01*
X306023Y688326D01*
X305966Y688244D01*
X305906Y688165D01*
X305842Y688087D01*
X305776Y688013D01*
X305707Y687941D01*
X305635Y687872D01*
X305561Y687806D01*
X305483Y687742D01*
X305404Y687682D01*
X305322Y687625D01*
X305238Y687571D01*
X305152Y687521D01*
X305064Y687474D01*
X304974Y687430D01*
X304883Y687390D01*
X304790Y687354D01*
X304696Y687321D01*
X304600Y687292D01*
X304504Y687267D01*
X304407Y687246D01*
X304308Y687228D01*
X304210Y687215D01*
X304110Y687205D01*
X304011Y687199D01*
X303911Y687197D01*
X303770Y687199D01*
X303629Y687204D01*
X303488Y687214D01*
X303347Y687227D01*
X303207Y687243D01*
X303067Y687264D01*
X302928Y687288D01*
X302789Y687316D01*
X302652Y687347D01*
X302515Y687382D01*
X302379Y687420D01*
X302244Y687462D01*
X302111Y687508D01*
X301978Y687557D01*
X301847Y687610D01*
X301718Y687666D01*
X301589Y687725D01*
X301463Y687788D01*
X301338Y687854D01*
X301215Y687923D01*
X301094Y687996D01*
X300975Y688072D01*
X300857Y688151D01*
X300742Y688232D01*
X300630Y688317D01*
X300519Y688405D01*
X300411Y688496D01*
X300305Y688589D01*
X300202Y688686D01*
X300101Y688785D01*
X300419Y696087D02*
X300421Y696187D01*
X300427Y696286D01*
X300437Y696386D01*
X300450Y696484D01*
X300468Y696583D01*
X300489Y696680D01*
X300514Y696776D01*
X300543Y696872D01*
X300576Y696966D01*
X300612Y697059D01*
X300652Y697150D01*
X300696Y697240D01*
X300743Y697328D01*
X300793Y697414D01*
X300847Y697498D01*
X300904Y697580D01*
X300964Y697659D01*
X301028Y697737D01*
X301094Y697811D01*
X301163Y697883D01*
X301235Y697952D01*
X301309Y698018D01*
X301387Y698082D01*
X301466Y698142D01*
X301548Y698199D01*
X301632Y698253D01*
X301718Y698303D01*
X301806Y698350D01*
X301896Y698394D01*
X301987Y698434D01*
X302080Y698470D01*
X302174Y698503D01*
X302270Y698532D01*
X302366Y698557D01*
X302463Y698578D01*
X302562Y698596D01*
X302660Y698609D01*
X302760Y698619D01*
X302859Y698625D01*
X302959Y698627D01*
X302959Y698628D02*
X303092Y698626D01*
X303225Y698621D01*
X303358Y698611D01*
X303491Y698598D01*
X303623Y698581D01*
X303755Y698561D01*
X303886Y698537D01*
X304016Y698509D01*
X304146Y698478D01*
X304274Y698443D01*
X304402Y698404D01*
X304528Y698362D01*
X304653Y698316D01*
X304777Y698267D01*
X304900Y698215D01*
X305021Y698159D01*
X305140Y698099D01*
X305258Y698037D01*
X305373Y697971D01*
X305487Y697902D01*
X305599Y697829D01*
X305709Y697754D01*
X305817Y697675D01*
X301688Y693864D02*
X301604Y693916D01*
X301521Y693971D01*
X301441Y694030D01*
X301363Y694091D01*
X301288Y694155D01*
X301215Y694223D01*
X301144Y694293D01*
X301077Y694365D01*
X301012Y694440D01*
X300950Y694518D01*
X300891Y694598D01*
X300835Y694680D01*
X300783Y694764D01*
X300734Y694850D01*
X300688Y694938D01*
X300645Y695028D01*
X300606Y695119D01*
X300571Y695212D01*
X300539Y695306D01*
X300511Y695401D01*
X300486Y695497D01*
X300466Y695594D01*
X300448Y695692D01*
X300435Y695790D01*
X300426Y695889D01*
X300420Y695988D01*
X300418Y696087D01*
X305181Y691960D02*
X305265Y691908D01*
X305348Y691853D01*
X305428Y691794D01*
X305506Y691733D01*
X305581Y691669D01*
X305654Y691601D01*
X305725Y691531D01*
X305792Y691459D01*
X305857Y691384D01*
X305919Y691306D01*
X305978Y691226D01*
X306034Y691144D01*
X306086Y691060D01*
X306135Y690974D01*
X306181Y690886D01*
X306224Y690796D01*
X306263Y690705D01*
X306298Y690612D01*
X306330Y690518D01*
X306358Y690423D01*
X306383Y690327D01*
X306403Y690230D01*
X306421Y690132D01*
X306434Y690034D01*
X306443Y689935D01*
X306449Y689836D01*
X306451Y689737D01*
X305181Y691960D02*
X301689Y693865D01*
X311556Y687197D02*
X316636Y687197D01*
X311556Y687197D02*
X311556Y698627D01*
X316636Y698627D01*
X315366Y693547D02*
X311556Y693547D01*
X321520Y698627D02*
X321520Y687197D01*
X321520Y698627D02*
X324695Y698627D01*
X324806Y698625D01*
X324916Y698619D01*
X325027Y698610D01*
X325137Y698596D01*
X325246Y698579D01*
X325355Y698558D01*
X325463Y698533D01*
X325570Y698504D01*
X325676Y698472D01*
X325781Y698436D01*
X325884Y698396D01*
X325986Y698353D01*
X326087Y698306D01*
X326186Y698255D01*
X326283Y698202D01*
X326377Y698145D01*
X326470Y698084D01*
X326561Y698021D01*
X326650Y697954D01*
X326736Y697884D01*
X326819Y697811D01*
X326901Y697736D01*
X326979Y697658D01*
X327054Y697576D01*
X327127Y697493D01*
X327197Y697407D01*
X327264Y697318D01*
X327327Y697227D01*
X327388Y697134D01*
X327445Y697039D01*
X327498Y696943D01*
X327549Y696844D01*
X327596Y696743D01*
X327639Y696641D01*
X327679Y696538D01*
X327715Y696433D01*
X327747Y696327D01*
X327776Y696220D01*
X327801Y696112D01*
X327822Y696003D01*
X327839Y695894D01*
X327853Y695784D01*
X327862Y695673D01*
X327868Y695563D01*
X327870Y695452D01*
X327868Y695341D01*
X327862Y695231D01*
X327853Y695120D01*
X327839Y695010D01*
X327822Y694901D01*
X327801Y694792D01*
X327776Y694684D01*
X327747Y694577D01*
X327715Y694471D01*
X327679Y694366D01*
X327639Y694263D01*
X327596Y694161D01*
X327549Y694060D01*
X327498Y693961D01*
X327445Y693865D01*
X327388Y693770D01*
X327327Y693677D01*
X327264Y693586D01*
X327197Y693497D01*
X327127Y693411D01*
X327054Y693328D01*
X326979Y693246D01*
X326901Y693168D01*
X326819Y693093D01*
X326736Y693020D01*
X326650Y692950D01*
X326561Y692883D01*
X326470Y692820D01*
X326377Y692759D01*
X326283Y692702D01*
X326186Y692649D01*
X326087Y692598D01*
X325986Y692551D01*
X325884Y692508D01*
X325781Y692468D01*
X325676Y692432D01*
X325570Y692400D01*
X325463Y692371D01*
X325355Y692346D01*
X325246Y692325D01*
X325137Y692308D01*
X325027Y692294D01*
X324916Y692285D01*
X324806Y692279D01*
X324695Y692277D01*
X321520Y692277D01*
X325330Y692277D02*
X327870Y687197D01*
X336042Y687197D02*
X332232Y698627D01*
X339852Y698627D02*
X336042Y687197D01*
X344297Y690372D02*
X344297Y695452D01*
X344299Y695563D01*
X344305Y695673D01*
X344314Y695784D01*
X344328Y695894D01*
X344345Y696003D01*
X344366Y696112D01*
X344391Y696220D01*
X344420Y696327D01*
X344452Y696433D01*
X344488Y696538D01*
X344528Y696641D01*
X344571Y696743D01*
X344618Y696844D01*
X344669Y696943D01*
X344722Y697040D01*
X344779Y697134D01*
X344840Y697227D01*
X344903Y697318D01*
X344970Y697407D01*
X345040Y697493D01*
X345113Y697576D01*
X345188Y697658D01*
X345266Y697736D01*
X345348Y697811D01*
X345431Y697884D01*
X345517Y697954D01*
X345606Y698021D01*
X345697Y698084D01*
X345790Y698145D01*
X345885Y698202D01*
X345981Y698255D01*
X346080Y698306D01*
X346181Y698353D01*
X346283Y698396D01*
X346386Y698436D01*
X346491Y698472D01*
X346597Y698504D01*
X346704Y698533D01*
X346812Y698558D01*
X346921Y698579D01*
X347030Y698596D01*
X347140Y698610D01*
X347251Y698619D01*
X347361Y698625D01*
X347472Y698627D01*
X347583Y698625D01*
X347693Y698619D01*
X347804Y698610D01*
X347914Y698596D01*
X348023Y698579D01*
X348132Y698558D01*
X348240Y698533D01*
X348347Y698504D01*
X348453Y698472D01*
X348558Y698436D01*
X348661Y698396D01*
X348763Y698353D01*
X348864Y698306D01*
X348963Y698255D01*
X349060Y698202D01*
X349154Y698145D01*
X349247Y698084D01*
X349338Y698021D01*
X349427Y697954D01*
X349513Y697884D01*
X349596Y697811D01*
X349678Y697736D01*
X349756Y697658D01*
X349831Y697576D01*
X349904Y697493D01*
X349974Y697407D01*
X350041Y697318D01*
X350104Y697227D01*
X350165Y697134D01*
X350222Y697040D01*
X350275Y696943D01*
X350326Y696844D01*
X350373Y696743D01*
X350416Y696641D01*
X350456Y696538D01*
X350492Y696433D01*
X350524Y696327D01*
X350553Y696220D01*
X350578Y696112D01*
X350599Y696003D01*
X350616Y695894D01*
X350630Y695784D01*
X350639Y695673D01*
X350645Y695563D01*
X350647Y695452D01*
X350647Y690372D01*
X350645Y690261D01*
X350639Y690151D01*
X350630Y690040D01*
X350616Y689930D01*
X350599Y689821D01*
X350578Y689712D01*
X350553Y689604D01*
X350524Y689497D01*
X350492Y689391D01*
X350456Y689286D01*
X350416Y689183D01*
X350373Y689081D01*
X350326Y688980D01*
X350275Y688881D01*
X350222Y688785D01*
X350165Y688690D01*
X350104Y688597D01*
X350041Y688506D01*
X349974Y688417D01*
X349904Y688331D01*
X349831Y688248D01*
X349756Y688166D01*
X349678Y688088D01*
X349596Y688013D01*
X349513Y687940D01*
X349427Y687870D01*
X349338Y687803D01*
X349247Y687740D01*
X349154Y687679D01*
X349059Y687622D01*
X348963Y687569D01*
X348864Y687518D01*
X348763Y687471D01*
X348661Y687428D01*
X348558Y687388D01*
X348453Y687352D01*
X348347Y687320D01*
X348240Y687291D01*
X348132Y687266D01*
X348023Y687245D01*
X347914Y687228D01*
X347804Y687214D01*
X347693Y687205D01*
X347583Y687199D01*
X347472Y687197D01*
X347361Y687199D01*
X347251Y687205D01*
X347140Y687214D01*
X347030Y687228D01*
X346921Y687245D01*
X346812Y687266D01*
X346704Y687291D01*
X346597Y687320D01*
X346491Y687352D01*
X346386Y687388D01*
X346283Y687428D01*
X346181Y687471D01*
X346080Y687518D01*
X345981Y687569D01*
X345885Y687622D01*
X345790Y687679D01*
X345697Y687740D01*
X345606Y687803D01*
X345517Y687870D01*
X345431Y687940D01*
X345348Y688013D01*
X345266Y688088D01*
X345188Y688166D01*
X345113Y688248D01*
X345040Y688331D01*
X344970Y688417D01*
X344903Y688506D01*
X344840Y688597D01*
X344779Y688690D01*
X344722Y688785D01*
X344669Y688881D01*
X344618Y688980D01*
X344571Y689081D01*
X344528Y689183D01*
X344488Y689286D01*
X344452Y689391D01*
X344420Y689497D01*
X344391Y689604D01*
X344366Y689712D01*
X344345Y689821D01*
X344328Y689930D01*
X344314Y690040D01*
X344305Y690151D01*
X344299Y690261D01*
X344297Y690372D01*
X355727Y689737D02*
X358267Y698627D01*
X355727Y689737D02*
X362077Y689737D01*
X360172Y692277D02*
X360172Y687197D01*
M02*
