0
SECTION
2
HEADER
9
$INSUNITS
70
4
9
$ACADVER
1
AC1014
9
$HANDSEED
5
FFFF
0
ENDSEC
0
SECTION
2
TABLES
0
TABLE
2
VPORT
5
8
100
AcDbSymbolTable
0
ENDTAB
0
TABLE
2
LTYPE
5
5
100
AcDbSymbolTable
0
LTYPE
5
14
100
AcDbSymbolTableRecord
100
AcDbLinetypeTableRecord
2
BYBLOCK
70
0
0
LTYPE
5
15
100
AcDbSymbolTableRecord
100
AcDbLinetypeTableRecord
2
BYLAYER
70
0
0
ENDTAB
0
TABLE
2
LAYER
5
2
100
AcDbSymbolTable
70
2
0
LAYER
5
50
100
AcDbSymbolTableRecord
100
AcDbLayerTableRecord
2
0
70
0
6
CONTINUOUS
0
ENDTAB
0
TABLE
2
STYLE
5
3
100
AcDbSymbolTable
70
1
0
STYLE
5
11
100
AcDbSymbolTableRecord
100
AcDbTextStyleTableRecord
2
STANDARD
70
0
0
ENDTAB
0
TABLE
2
VIEW
5
6
100
AcDbSymbolTable
70
0
0
ENDTAB
0
TABLE
2
UCS
5
7
100
AcDbSymbolTable
70
0
0
ENDTAB
0
TABLE
2
APPID
5
9
100
AcDbSymbolTable
70
2
0
APPID
5
12
100
AcDbSymbolTableRecord
100
AcDbRegAppTableRecord
2
ACAD
70
0
0
ENDTAB
0
TABLE
2
DIMSTYLE
5
A
100
AcDbSymbolTable
70
1
0
ENDTAB
0
TABLE
2
BLOCK_RECORD
5
1
100
AcDbSymbolTable
70
1
0
BLOCK_RECORD
5
1F
100
AcDbSymbolTableRecord
100
AcDbBlockTableRecord
2
*MODEL_SPACE
0
BLOCK_RECORD
5
1B
100
AcDbSymbolTableRecord
100
AcDbBlockTableRecord
2
*PAPER_SPACE
0
ENDTAB
0
ENDSEC
0
SECTION
2
BLOCKS
0
BLOCK
5
20
100
AcDbEntity
100
AcDbBlockBegin
2
*MODEL_SPACE
0
ENDBLK
5
21
100
AcDbEntity
100
AcDbBlockEnd
0
BLOCK
5
1C
100
AcDbEntity
100
AcDbBlockBegin
2
*PAPER_SPACE
0
ENDBLK
5
1D
100
AcDbEntity
100
AcDbBlockEnd
0
ENDSEC
0
SECTION
2
ENTITIES
0
LWPOLYLINE
5
100
100
AcDbEntity
8
0
100
AcDbPolyline
90
32
70
1
43
0.0
10
10.000000149011612
20
18.200000268220901
10
10.000000149011612
20
10.000000149011612
10
22.000000327825546
20
10.000000149011612
10
22.000000327825546
20
2.0000000298023224
10
43.000000640749931
20
2.0000000298023224
10
43.000000640749931
20
10.000000149011612
10
54.000000819563866
20
10.000000149011612
10
54.000000819563866
20
18.200000268220911
10
61.000000968575478
20
18.200000268220915
42
0.41421356237309243
10
63.000000968575478
20
20.200000268220919
10
63.000000968575478
20
29.800000476837162
42
0.41421356237309243
10
61.000000968575478
20
31.800000476837162
10
54.000000819563859
20
31.800000476837166
10
54.000000819563851
20
46.700000692904013
10
58.000000864267349
20
46.700000692903998
10
58.000000864267349
20
56.300000841915612
10
54.000000819563859
20
56.300000841915612
10
54.000000819563859
20
69.000001028180122
10
40.000000596046448
20
69.000001028180122
10
40.000000596046448
20
75.00000111758709
10
25.00000037252903
20
75.00000111758709
10
25.00000037252903
20
69.000001028180122
10
10.000000149011612
20
69.000001028180122
10
10.000000149011612
20
60.300000901520256
10
7.0000001043081284
20
60.300000901520256
10
7.0000001043081284
20
48.700000722706314
10
10.000000149011612
20
48.700000722706314
10
10.000000149011612
20
31.800000476837159
10
3
20
31.800000476837159
42
0.41421356237309587
10
1
20
29.800000476837155
10
0.99999999999999978
20
20.200000268220904
42
0.41421356237309359
10
3.0000000000000004
20
18.200000268220901
0
LWPOLYLINE
5
101
100
AcDbEntity
8
0
100
AcDbPolyline
90
4
70
1
43
0.0
10
23.000000357627869
20
11.900000178813935
10
14.500000223517418
20
11.900000178813935
10
14.500000223517418
20
15.100000223517418
10
23.000000357627869
20
15.100000223517418
0
LWPOLYLINE
5
102
100
AcDbEntity
8
0
100
AcDbPolyline
90
4
70
1
43
0.0
10
40.00000062584877
20
11.900000178813935
10
49.00000074505806
20
11.900000178813935
10
49.00000074505806
20
15.100000223517418
10
40.00000062584877
20
15.100000223517418
0
LWPOLYLINE
5
103
100
AcDbEntity
8
0
100
AcDbPolyline
90
4
70
1
43
0.0
10
40.00000062584877
20
67.100000998377794
10
49.00000074505806
20
67.100000998377794
10
49.00000074505806
20
63.900000953674322
10
40.00000062584877
20
63.900000953674322
0
LWPOLYLINE
5
104
100
AcDbEntity
8
0
100
AcDbPolyline
90
4
70
1
43
0.0
10
23.000000357627869
20
67.100000998377794
10
14.500000223517418
20
67.100000998377794
10
14.500000223517418
20
63.900000953674322
10
23.000000357627869
20
63.900000953674322
0
LWPOLYLINE
5
105
100
AcDbEntity
8
0
100
AcDbPolyline
90
4
70
1
43
0.0
10
30.600000454485414
20
18.900000283122061
10
27.400000409781935
20
18.900000283122061
10
27.400000409781935
20
27.10000040233135
10
30.600000454485414
20
27.10000040233135
0
LWPOLYLINE
5
106
100
AcDbEntity
8
0
100
AcDbPolyline
90
4
70
1
43
0.0
10
27.400000409781935
20
48.900000730156904
10
30.600000454485414
20
48.900000730156904
10
30.600000454485414
20
59.10060312374209
10
27.400000409781935
20
59.10060312374209
0
LWPOLYLINE
5
107
100
AcDbEntity
8
0
100
AcDbPolyline
90
4
70
1
43
0.0
10
40.000000596046448
20
45.000000670552254
10
17.00000025331974
20
45.000000670552254
10
17.00000025331974
20
33.000000491738319
10
40.000000596046448
20
33.000000491738319
0
ENDSEC
0
SECTION
2
OBJECTS
0
DICTIONARY
5
C
100
AcDbDictionary
3
ACAD_GROUP
350
D
3
ACAD_MLINESTYLE
350
17
0
DICTIONARY
5
D
100
AcDbDictionary
0
DICTIONARY
5
1A
330
C
100
AcDbDictionary
0
DICTIONARY
5
17
100
AcDbDictionary
0
ENDSEC
0
EOF
